<?xml version="1.0" encoding="utf-8"?>
<!-- Generator: Adobe Illustrator 25.1.0, SVG Export Plug-In . SVG Version: 6.00 Build 0)  -->
<svg version="1.1" id="Layer_1" xmlns="http://www.w3.org/2000/svg" xmlns:xlink="http://www.w3.org/1999/xlink" x="0px" y="0px"
	 viewBox="0 0 1674.9 600" style="enable-background:new 0 0 1674.9 600;" xml:space="preserve">
<style type="text/css">
	.st0{fill:#559DBE;}
	.st1{fill:#FFFFFF;}
	.st2{fill:#FFFFFF;stroke:#559DBE;stroke-width:4;stroke-miterlimit:10;}
	.st3{fill:url(#SVGID_1_);stroke:url(#SVGID_2_);stroke-width:6;stroke-miterlimit:10;}
	.st4{fill:#52B7AB;}
	.st5{fill:url(#Seaweed_Curve_Grad_1_);}
	.st6{fill:#ACE1E5;}
	.st7{fill:url(#Sea_Blue_Curve_Grad_1_);}
	.st8{fill:url(#Sky_Blue_Curve_Grad_1_);}
	.st9{fill:none;stroke:#559DBE;stroke-width:6;stroke-miterlimit:10;}
	.st10{fill:#FFFFFF;stroke:#393F47;stroke-width:7;stroke-miterlimit:10;}
	.st11{fill:#393F47;}
	.st12{fill:none;stroke:#000000;stroke-width:4;stroke-linecap:round;stroke-miterlimit:10;}
	.st13{font-family:'Raleway-Bold';}
	.st14{font-size:37.32px;}
	.st15{font-family:'OpenSans-Semibold';}
	.st16{font-size:75.89px;}
	.st17{font-size:55.99px;}
</style>
<g id="Ticket">
	<path class="st0" d="M13.9,3.5h1647.2c5.7,0,10.3,4.6,10.3,10.3v572.3c0,5.7-4.6,10.3-10.3,10.3H13.8c-5.7,0-10.3-4.6-10.3-10.3
		V13.9C3.5,8.1,8.1,3.5,13.9,3.5L13.9,3.5z"/>
	<path class="st1" d="M1661.1,7c3.8,0,6.8,3.1,6.8,6.8v572.3c0,3.8-3.1,6.8-6.8,6.8H13.9c-3.8,0-6.8-3.1-6.9-6.8l0,0V13.8
		C7,10.1,10.1,7,13.8,7l0,0H1661.1 M1661.1,0H13.9C6.2,0,0,6.2,0,13.8v572.3c0,7.6,6.2,13.8,13.9,13.8h1647.2
		c7.6,0,13.8-6.2,13.8-13.8V13.8C1674.9,6.2,1668.7,0,1661.1,0z"/>
	<path class="st2" d="M33,25h1609c3.8,0,6.8,3.1,6.8,6.8v535.6c0,3.8-3.1,6.8-6.8,6.8H33c-3.8,0-6.8-3.1-6.8-6.8V31.9
		C26.1,28.1,29.2,25,33,25z"/>
</g>
<g id="Layer_11">
	
		<linearGradient id="SVGID_1_" gradientUnits="userSpaceOnUse" x1="43.2" y1="778" x2="1623.8999" y2="778" gradientTransform="matrix(1 0 0 1 0 -478)">
		<stop  offset="0" style="stop-color:#FFFFFF"/>
		<stop  offset="1" style="stop-color:#ABCFDB"/>
	</linearGradient>
	
		<linearGradient id="SVGID_2_" gradientUnits="userSpaceOnUse" x1="40.2" y1="778" x2="1626.8999" y2="778" gradientTransform="matrix(1 0 0 1 0 -478)">
		<stop  offset="0" style="stop-color:#559DBE"/>
		<stop  offset="1" style="stop-color:#ABCFDB"/>
	</linearGradient>
	<rect x="43.2" y="41.2" class="st3" width="1580.7" height="517.6"/>
	<g id="Badge_Background">
		<g id="Seaweed_Curve">
			<path class="st4" d="M169.8,556.3H74.1C64,550,62.9,523.5,62.9,510V54.6c0-2.8,0.4-5.6,1.2-8.4c2.5-0.8,5.2-1.3,7.9-1.3h110.2
				C278.8,153.9,400.4,370,169.8,556.3z"/>
		</g>
		
			<linearGradient id="Seaweed_Curve_Grad_1_" gradientUnits="userSpaceOnUse" x1="409.48" y1="718.4379" x2="920.88" y2="718.4379" gradientTransform="matrix(6.123234e-17 1 -1 6.123234e-17 900.85 -364.58)">
			<stop  offset="0" style="stop-color:#52B7AB"/>
			<stop  offset="1" style="stop-color:#7AE5D3"/>
		</linearGradient>
		<path id="Seaweed_Curve_Grad" class="st5" d="M169.8,556.3H74.1C64,550,62.9,523.5,62.9,510V54.6c0-2.8,0.4-5.6,1.2-8.4
			c2.5-0.8,5.2-1.3,7.9-1.3h110.2C278.8,153.9,400.4,370,169.8,556.3z"/>
		<g id="Sea_Blue_Curve">
			<path class="st6" d="M161.2,556.3H72c-14.5,0-26.3-12.5-26.3-28V72.9c0-15.5,11.8-28,26.3-28h76C246,146.6,408,358.6,161.2,556.3
				z"/>
		</g>
		
			<linearGradient id="Sea_Blue_Curve_Grad_1_" gradientUnits="userSpaceOnUse" x1="409.48" y1="732.2667" x2="920.88" y2="732.2667" gradientTransform="matrix(6.123234e-17 1 -1 6.123234e-17 900.85 -364.58)">
			<stop  offset="0" style="stop-color:#FFFFFF"/>
			<stop  offset="1" style="stop-color:#ACE1E5"/>
		</linearGradient>
		<path id="Sea_Blue_Curve_Grad" class="st7" d="M161.2,556.3H72c-14.5,0-26.3-12.5-26.3-28V72.9c0-15.5,11.8-28,26.3-28h76
			C246,146.6,408,358.6,161.2,556.3z"/>
		
			<linearGradient id="Sky_Blue_Curve_Grad_1_" gradientUnits="userSpaceOnUse" x1="169.8239" y1="1009.3629" x2="380.1" y2="1009.3629" gradientTransform="matrix(1 0 0 1 -126 -709.51)">
			<stop  offset="0" style="stop-color:#559DBE"/>
			<stop  offset="1" style="stop-color:#ABCFDB"/>
		</linearGradient>
		<path id="Sky_Blue_Curve_Grad" class="st8" d="M116,558.5l-60.4-2.2c-16.6,4.2-11.2-5-9.9-6.2V53.7c0-15.5-3.3-12.2,11.2-12.2
			h197.2c-55,47-112.7,112.3-136.4,178.9C86.6,307.7,99.4,454.5,116,558.5z"/>
	</g>
	<rect x="43.2" y="41.2" class="st9" width="1580.7" height="517.6"/>
</g>
<svg id="QR_PLACEHOLDER">
	<g id="QR_Code_1_">
		<path class="st1" d="M1157.2,88h417.5c4.1,0,7.3,3.3,7.3,7.3v417.5c0,4.1-3.3,7.3-7.3,7.3h-417.5c-4.1,0-7.3-3.3-7.3-7.3V95.3
			C1149.9,91.3,1153.2,88,1157.2,88z"/>
		<path class="st10" d="M1186.2,115.5h63.1c3.3,0,6,2.7,6,6v63.1c0,3.3-2.7,6-6,6h-63.1c-3.3,0-6-2.7-6-6v-63.1
			C1180.3,118.2,1183,115.5,1186.2,115.5z"/>
		<path class="st11" d="M1203.8,133.1h28c3.3,0,6,2.7,6,6v28c0,3.3-2.7,6-6,6h-28c-3.3,0-6-2.7-6-6v-28
			C1197.8,135.7,1200.5,133.1,1203.8,133.1z"/>
		<path class="st10" d="M1186.2,418.9h63.1c3.3,0,6,2.7,6,6V488c0,3.3-2.7,6-6,6h-63.1c-3.3,0-6-2.7-6-6v-63.1
			C1180.3,421.5,1183,418.9,1186.2,418.9z"/>
		<path class="st11" d="M1203.8,436.4h28c3.3,0,6,2.7,6,6v28c0,3.3-2.7,6-6,6h-28c-3.3,0-6-2.7-6-6v-28
			C1197.8,439.1,1200.5,436.4,1203.8,436.4z"/>
		<path class="st10" d="M1479.8,115.5h63.1c3.3,0,6,2.7,6,6v63.1c0,3.3-2.7,6-6,6h-63.1c-3.3,0-6-2.7-6-6v-63.1
			C1473.8,118.2,1476.5,115.5,1479.8,115.5z"/>
		<path class="st11" d="M1497.3,133.1h28c3.3,0,6,2.7,6,6v28c0,3.3-2.7,6-6,6h-28c-3.3,0-6-2.7-6-6v-28
			C1491.4,135.7,1494,133.1,1497.3,133.1z"/>
		<rect x="1329.2" y="458" class="st11" width="221.9" height="35.3"/>
		<rect x="1287.3" y="114.9" class="st11" width="120.8" height="79.9"/>
		<rect x="1356.8" y="324" class="st11" width="79.9" height="111.3"/>
		<rect x="1287.3" y="221.1" class="st11" width="148.3" height="35.9"/>
		<rect x="1179.8" y="221.1" class="st11" width="35.9" height="138.8"/>
		<rect x="1479.5" y="324" class="st11" width="71.6" height="71.6"/>
		<rect x="1479.5" y="221.1" class="st11" width="71.6" height="71.6"/>
		<rect x="1252.6" y="324" class="st11" width="71.6" height="71.6"/>
	</g>
</svg>
<g id="titleBars">
	<line class="st12" x1="419.8" y1="249.7" x2="1005.4" y2="249.7"/>
	<line class="st12" x1="327.1" y1="88" x2="1098.1" y2="88"/>
</g>
<g id="Text">
	<text id="seatNumber" transform="matrix(1 0 0 1 887.27 496.19)" class="st13 st14">9</text>
	<text transform="matrix(1 0 0 1 787.27 496.19)" class="st13 st14">Seat</text>
	<text id="rowNumber" transform="matrix(1 0 0 1 618.53 496.19)" class="st13 st14">G</text>
	<text transform="matrix(1 0 0 1 518.53 496.19)" class="st13 st14">Row</text>
	<text id="Time" transform="matrix(1 0 0 1 787.27 428.1295)" class="st13 st14">11:30 AM</text>
	<text id="Doors" transform="matrix(1 0 0 1 518.53 428.13)" class="st13 st14">Doors Open: </text>
	<text id="Name" transform="matrix(1 0 0 1 528.4399 356.4185)" class="st15 st16">Kerwin Cervantez</text>
	<text transform="matrix(1 0 0 1 373.7953 157.4407)" class="st13 st17">WORLDWIDE JAVASCRIPT</text>
	<text transform="matrix(1 0 0 1 355.0953 224.6407)" class="st13 st17">DEVELOPERS CONFERENCE</text>
</g>
</svg>
